<svg xmlns="http://www.w3.org/2000/svg" xmlns:xlink="http://www.w3.org/1999/xlink" width="371" zoomAndPan="magnify" viewBox="0 0 278.25 95.999999" height="128" preserveAspectRatio="xMidYMid meet" version="1.0"><defs><g/><clipPath id="6e9a9cf33e"><path d="M 0 0.128906 L 277.503906 0.128906 L 277.503906 95.871094 L 0 95.871094 Z M 0 0.128906 " clip-rule="nonzero"/></clipPath><clipPath id="263b8b9de7"><path d="M 89.585938 0.128906 L 187.570312 0.128906 L 187.570312 59.96875 L 89.585938 59.96875 Z M 89.585938 0.128906 " clip-rule="nonzero"/></clipPath></defs><g clip-path="url(#6e9a9cf33e)"><path fill="#ffffff" d="M 0 0.128906 L 277.503906 0.128906 L 277.503906 95.871094 L 0 95.871094 Z M 0 0.128906 " fill-opacity="1" fill-rule="nonzero"/></g><g clip-path="url(#263b8b9de7)"><path fill="#f0535a" d="M 187.910156 80.316406 L 85.808594 80.316406 C 85.148438 80.316406 84.617188 79.78125 84.617188 79.125 L 84.617188 -22.976562 C 84.617188 -23.632812 85.148438 -24.167969 85.808594 -24.167969 C 86.464844 -24.167969 86.996094 -23.632812 86.996094 -22.976562 L 86.996094 77.933594 L 187.910156 77.933594 C 188.566406 77.933594 189.101562 78.464844 189.101562 79.125 C 189.101562 79.78125 188.566406 80.316406 187.910156 80.316406 " fill-opacity="1" fill-rule="nonzero"/></g><path fill="#f0535a" d="M 180.445312 16.402344 C 179.785156 16.402344 179.253906 15.867188 179.253906 15.210938 L 179.253906 8.78125 L 172.824219 8.78125 C 172.164062 8.78125 171.632812 8.246094 171.632812 7.589844 C 171.632812 6.933594 172.164062 6.398438 172.824219 6.398438 L 180.445312 6.398438 C 181.101562 6.398438 181.632812 6.933594 181.632812 7.589844 L 181.632812 15.210938 C 181.632812 15.867188 181.101562 16.402344 180.445312 16.402344 " fill-opacity="1" fill-rule="nonzero"/><path fill="#f0535a" d="M 92.1875 53.386719 C 91.882812 53.386719 91.582031 53.269531 91.347656 53.035156 C 90.878906 52.570312 90.878906 51.816406 91.347656 51.351562 L 112.46875 30.230469 C 112.933594 29.765625 113.6875 29.765625 114.15625 30.230469 L 125.691406 41.765625 L 152.035156 15.425781 C 152.5 14.960938 153.253906 14.960938 153.71875 15.425781 L 162.320312 24.027344 L 179.601562 6.746094 C 180.066406 6.28125 180.820312 6.28125 181.285156 6.746094 C 181.75 7.210938 181.75 7.96875 181.285156 8.429688 L 163.164062 26.554688 C 162.699219 27.019531 161.945312 27.019531 161.476562 26.554688 L 152.875 17.953125 L 126.535156 44.292969 C 126.070312 44.757812 125.316406 44.757812 124.847656 44.292969 L 113.3125 32.757812 L 93.03125 53.035156 C 92.800781 53.269531 92.492188 53.386719 92.1875 53.386719 " fill-opacity="1" fill-rule="nonzero"/><path fill="#f0535a" d="M 180.445312 41.773438 C 179.785156 41.773438 179.253906 41.238281 179.253906 40.582031 L 179.253906 34.152344 L 172.824219 34.152344 C 172.164062 34.152344 171.632812 33.617188 171.632812 32.960938 C 171.632812 32.300781 172.164062 31.769531 172.824219 31.769531 L 180.445312 31.769531 C 181.101562 31.769531 181.632812 32.300781 181.632812 32.960938 L 181.632812 40.582031 C 181.632812 41.238281 181.101562 41.773438 180.445312 41.773438 " fill-opacity="1" fill-rule="nonzero"/><path fill="#f0535a" d="M 149.859375 51.316406 C 149.554688 51.316406 149.25 51.199219 149.019531 50.96875 L 136.980469 38.929688 C 136.515625 38.464844 136.515625 37.710938 136.980469 37.246094 C 137.449219 36.78125 138.199219 36.78125 138.664062 37.246094 L 149.859375 48.441406 L 160.847656 37.457031 C 161.3125 36.992188 162.066406 36.992188 162.53125 37.457031 L 168.394531 43.324219 L 179.601562 32.117188 C 180.066406 31.652344 180.820312 31.652344 181.285156 32.117188 C 181.75 32.585938 181.75 33.339844 181.285156 33.804688 L 169.238281 45.851562 C 168.773438 46.316406 168.019531 46.316406 167.554688 45.851562 L 161.6875 39.984375 L 150.703125 50.96875 C 150.46875 51.199219 150.167969 51.316406 149.859375 51.316406 " fill-opacity="1" fill-rule="nonzero"/><path fill="#f0535a" d="M 131.054688 32.511719 C 130.75 32.511719 130.445312 32.394531 130.214844 32.164062 L 109.359375 11.3125 L 93.03125 27.640625 C 92.566406 28.105469 91.8125 28.105469 91.347656 27.640625 C 90.878906 27.171875 90.878906 26.421875 91.347656 25.957031 L 108.519531 8.785156 C 108.984375 8.320312 109.738281 8.320312 110.203125 8.785156 L 131.898438 30.476562 C 132.363281 30.941406 132.363281 31.699219 131.898438 32.164062 C 131.664062 32.394531 131.359375 32.511719 131.054688 32.511719 " fill-opacity="1" fill-rule="nonzero"/><g fill="#f0535a" fill-opacity="1"><g transform="translate(9.260117, 80.555456)"><g><path d="M 1.140625 -17.28125 L 11.9375 -17.28125 L 11.9375 -13.921875 L 4.84375 -13.921875 L 4.84375 -10.796875 L 11.09375 -10.796875 L 11.09375 -7.4375 L 4.84375 -7.4375 L 4.84375 0 L 1.140625 0 Z M 1.140625 -17.28125 "/></g></g></g><g fill="#f0535a" fill-opacity="1"><g transform="translate(23.418401, 80.555456)"><g><path d="M 7.4375 -17.28125 L 7.4375 -14.15625 L 6.140625 -14.15625 L 6.140625 -3.09375 L 7.4375 -3.09375 L 7.4375 0 L 1.140625 0 L 1.140625 -3.09375 L 2.4375 -3.09375 L 2.4375 -14.15625 L 1.140625 -14.15625 L 1.140625 -17.28125 Z M 7.4375 -17.28125 "/></g></g></g><g fill="#f0535a" fill-opacity="1"><g transform="translate(33.872739, 80.555456)"><g><path d="M 12.96875 -17.28125 L 16.640625 -17.28125 L 16.640625 0 L 13.140625 0 L 4.828125 -11.28125 L 4.828125 0 L 1.140625 0 L 1.140625 -17.28125 L 4.609375 -17.28125 L 12.96875 -5.921875 Z M 12.96875 -17.28125 "/></g></g></g><g fill="#f0535a" fill-opacity="1"><g transform="translate(53.562547, 80.555456)"><g><path d="M 11.765625 -17.28125 L 18.984375 0 L 14.984375 0 L 13.4375 -3.703125 L 6.09375 -3.703125 L 4.5625 0 L 0.53125 0 L 7.75 -17.28125 Z M 12.046875 -7.0625 L 9.78125 -12.5 L 7.5 -7.0625 Z M 12.046875 -7.0625 "/></g></g></g><g fill="#f0535a" fill-opacity="1"><g transform="translate(74.982492, 80.555456)"><g><path d="M 12.96875 -17.28125 L 16.640625 -17.28125 L 16.640625 0 L 13.140625 0 L 4.828125 -11.28125 L 4.828125 0 L 1.140625 0 L 1.140625 -17.28125 L 4.609375 -17.28125 L 12.96875 -5.921875 Z M 12.96875 -17.28125 "/></g></g></g><g fill="#f0535a" fill-opacity="1"><g transform="translate(94.672303, 80.555456)"><g><path d="M 9.28125 -3.359375 C 10.0625 -3.359375 10.828125 -3.535156 11.578125 -3.890625 C 12.328125 -4.253906 13.082031 -4.859375 13.84375 -5.703125 L 16.234375 -3.4375 C 15.273438 -2.195312 14.179688 -1.257812 12.953125 -0.625 C 11.722656 0 10.460938 0.3125 9.171875 0.3125 C 7.992188 0.3125 6.894531 0.0703125 5.875 -0.40625 C 4.851562 -0.882812 3.960938 -1.53125 3.203125 -2.34375 C 2.453125 -3.15625 1.859375 -4.097656 1.421875 -5.171875 C 0.992188 -6.253906 0.78125 -7.40625 0.78125 -8.625 C 0.78125 -9.84375 1.003906 -10.988281 1.453125 -12.0625 C 1.898438 -13.132812 2.503906 -14.078125 3.265625 -14.890625 C 4.023438 -15.703125 4.925781 -16.34375 5.96875 -16.8125 C 7.007812 -17.289062 8.113281 -17.53125 9.28125 -17.53125 C 10.375 -17.53125 11.410156 -17.328125 12.390625 -16.921875 C 13.378906 -16.515625 14.34375 -15.835938 15.28125 -14.890625 L 13.140625 -12.28125 C 12.453125 -12.914062 11.800781 -13.34375 11.1875 -13.5625 C 10.582031 -13.78125 9.945312 -13.890625 9.28125 -13.890625 C 8.613281 -13.890625 7.984375 -13.75 7.390625 -13.46875 C 6.804688 -13.195312 6.289062 -12.828125 5.84375 -12.359375 C 5.40625 -11.890625 5.0625 -11.332031 4.8125 -10.6875 C 4.5625 -10.039062 4.4375 -9.351562 4.4375 -8.625 C 4.4375 -7.894531 4.5625 -7.210938 4.8125 -6.578125 C 5.0625 -5.941406 5.40625 -5.382812 5.84375 -4.90625 C 6.289062 -4.425781 6.804688 -4.046875 7.390625 -3.765625 C 7.984375 -3.492188 8.613281 -3.359375 9.28125 -3.359375 Z M 9.28125 -3.359375 "/></g></g></g><g fill="#f0535a" fill-opacity="1"><g transform="translate(113.509235, 80.555456)"><g><path d="M 7.4375 -17.28125 L 7.4375 -14.15625 L 6.140625 -14.15625 L 6.140625 -3.09375 L 7.4375 -3.09375 L 7.4375 0 L 1.140625 0 L 1.140625 -3.09375 L 2.4375 -3.09375 L 2.4375 -14.15625 L 1.140625 -14.15625 L 1.140625 -17.28125 Z M 7.4375 -17.28125 "/></g></g></g><g fill="#f0535a" fill-opacity="1"><g transform="translate(123.963569, 80.555456)"><g><path d="M 11.765625 -17.28125 L 18.984375 0 L 14.984375 0 L 13.4375 -3.703125 L 6.09375 -3.703125 L 4.5625 0 L 0.53125 0 L 7.75 -17.28125 Z M 12.046875 -7.0625 L 9.78125 -12.5 L 7.5 -7.0625 Z M 12.046875 -7.0625 "/></g></g></g><g fill="#f0535a" fill-opacity="1"><g transform="translate(145.383509, 80.555456)"><g><path d="M 4.84375 -3.34375 L 11.9375 -3.34375 L 11.9375 0 L 1.140625 0 L 1.140625 -17.28125 L 4.84375 -17.28125 Z M 4.84375 -3.34375 "/></g></g></g><g fill="#02273b" fill-opacity="1"><g transform="translate(159.476313, 80.555456)"><g/></g></g><g fill="#02273b" fill-opacity="1"><g transform="translate(167.737536, 80.555456)"><g><path d="M 15.625 0 L 12.4375 0 L 7 -7.453125 L 3.96875 -7.453125 L 3.96875 0 L 1.40625 0 L 1.40625 -17.28125 L 8.4375 -17.28125 C 9.113281 -17.28125 9.753906 -17.148438 10.359375 -16.890625 C 10.972656 -16.628906 11.503906 -16.28125 11.953125 -15.84375 C 12.398438 -15.40625 12.753906 -14.890625 13.015625 -14.296875 C 13.273438 -13.703125 13.40625 -13.0625 13.40625 -12.375 C 13.40625 -11.8125 13.316406 -11.273438 13.140625 -10.765625 C 12.960938 -10.265625 12.710938 -9.8125 12.390625 -9.40625 C 12.078125 -9 11.703125 -8.644531 11.265625 -8.34375 C 10.828125 -8.039062 10.347656 -7.816406 9.828125 -7.671875 Z M 8.4375 -9.84375 C 8.78125 -9.84375 9.101562 -9.910156 9.40625 -10.046875 C 9.71875 -10.191406 9.984375 -10.375 10.203125 -10.59375 C 10.421875 -10.820312 10.59375 -11.09375 10.71875 -11.40625 C 10.851562 -11.726562 10.921875 -12.070312 10.921875 -12.4375 C 10.921875 -12.789062 10.851562 -13.117188 10.71875 -13.421875 C 10.59375 -13.734375 10.421875 -14.003906 10.203125 -14.234375 C 9.984375 -14.472656 9.71875 -14.660156 9.40625 -14.796875 C 9.101562 -14.941406 8.78125 -15.015625 8.4375 -15.015625 L 3.96875 -15.015625 L 3.96875 -9.828125 Z M 8.4375 -9.84375 "/></g></g></g><g fill="#02273b" fill-opacity="1"><g transform="translate(185.624118, 80.555456)"><g><path d="M 11.921875 -17.28125 L 11.921875 -14.984375 L 3.90625 -14.984375 L 3.90625 -10.28125 L 11.046875 -10.28125 L 11.046875 -7.921875 L 3.90625 -7.921875 L 3.90625 -2.359375 L 11.921875 -2.359375 L 11.921875 0 L 1.359375 0 L 1.359375 -17.28125 Z M 11.921875 -17.28125 "/></g></g></g><g fill="#02273b" fill-opacity="1"><g transform="translate(200.903325, 80.555456)"><g><path d="M 8.34375 -17.28125 C 9.019531 -17.28125 9.65625 -17.148438 10.25 -16.890625 C 10.851562 -16.628906 11.378906 -16.28125 11.828125 -15.84375 C 12.273438 -15.40625 12.628906 -14.890625 12.890625 -14.296875 C 13.148438 -13.703125 13.28125 -13.0625 13.28125 -12.375 C 13.28125 -11.695312 13.148438 -11.054688 12.890625 -10.453125 C 12.628906 -9.859375 12.273438 -9.335938 11.828125 -8.890625 C 11.378906 -8.453125 10.851562 -8.109375 10.25 -7.859375 C 9.65625 -7.609375 9.019531 -7.484375 8.34375 -7.484375 L 3.84375 -7.453125 L 3.84375 0 L 1.3125 0 L 1.3125 -17.28125 Z M 8.34375 -9.84375 C 8.675781 -9.84375 8.992188 -9.910156 9.296875 -10.046875 C 9.597656 -10.191406 9.863281 -10.375 10.09375 -10.59375 C 10.320312 -10.820312 10.5 -11.09375 10.625 -11.40625 C 10.757812 -11.726562 10.828125 -12.070312 10.828125 -12.4375 C 10.828125 -12.789062 10.757812 -13.117188 10.625 -13.421875 C 10.5 -13.734375 10.320312 -14.003906 10.09375 -14.234375 C 9.863281 -14.472656 9.597656 -14.660156 9.296875 -14.796875 C 8.992188 -14.941406 8.675781 -15.015625 8.34375 -15.015625 L 3.84375 -15.015625 L 3.84375 -9.84375 Z M 8.34375 -9.84375 "/></g></g></g><g fill="#02273b" fill-opacity="1"><g transform="translate(216.986672, 80.555456)"><g><path d="M 9.390625 -17.53125 C 10.554688 -17.53125 11.660156 -17.289062 12.703125 -16.8125 C 13.742188 -16.34375 14.648438 -15.707031 15.421875 -14.90625 C 16.191406 -14.101562 16.800781 -13.160156 17.25 -12.078125 C 17.707031 -10.992188 17.9375 -9.851562 17.9375 -8.65625 C 17.9375 -7.4375 17.707031 -6.289062 17.25 -5.21875 C 16.800781 -4.144531 16.1875 -3.203125 15.40625 -2.390625 C 14.625 -1.585938 13.710938 -0.953125 12.671875 -0.484375 C 11.628906 -0.015625 10.523438 0.21875 9.359375 0.21875 C 8.191406 0.21875 7.085938 -0.015625 6.046875 -0.484375 C 5.003906 -0.953125 4.097656 -1.585938 3.328125 -2.390625 C 2.554688 -3.203125 1.945312 -4.144531 1.5 -5.21875 C 1.050781 -6.289062 0.828125 -7.4375 0.828125 -8.65625 C 0.828125 -9.851562 1.050781 -10.992188 1.5 -12.078125 C 1.945312 -13.160156 2.5625 -14.101562 3.34375 -14.90625 C 4.125 -15.707031 5.03125 -16.34375 6.0625 -16.8125 C 7.101562 -17.289062 8.210938 -17.53125 9.390625 -17.53125 Z M 9.390625 -2.1875 C 10.210938 -2.1875 10.984375 -2.351562 11.703125 -2.6875 C 12.429688 -3.019531 13.0625 -3.476562 13.59375 -4.0625 C 14.132812 -4.65625 14.554688 -5.34375 14.859375 -6.125 C 15.171875 -6.914062 15.328125 -7.757812 15.328125 -8.65625 C 15.328125 -9.550781 15.171875 -10.382812 14.859375 -11.15625 C 14.554688 -11.9375 14.132812 -12.617188 13.59375 -13.203125 C 13.0625 -13.796875 12.429688 -14.257812 11.703125 -14.59375 C 10.984375 -14.925781 10.210938 -15.09375 9.390625 -15.09375 C 8.554688 -15.09375 7.773438 -14.925781 7.046875 -14.59375 C 6.328125 -14.257812 5.695312 -13.796875 5.15625 -13.203125 C 4.625 -12.617188 4.195312 -11.9375 3.875 -11.15625 C 3.5625 -10.382812 3.40625 -9.550781 3.40625 -8.65625 C 3.40625 -7.757812 3.5625 -6.914062 3.875 -6.125 C 4.195312 -5.34375 4.625 -4.65625 5.15625 -4.0625 C 5.695312 -3.476562 6.328125 -3.019531 7.046875 -2.6875 C 7.773438 -2.351562 8.554688 -2.1875 9.390625 -2.1875 Z M 9.390625 -2.1875 "/></g></g></g><g fill="#02273b" fill-opacity="1"><g transform="translate(237.578101, 80.555456)"><g><path d="M 15.625 0 L 12.4375 0 L 7 -7.453125 L 3.96875 -7.453125 L 3.96875 0 L 1.40625 0 L 1.40625 -17.28125 L 8.4375 -17.28125 C 9.113281 -17.28125 9.753906 -17.148438 10.359375 -16.890625 C 10.972656 -16.628906 11.503906 -16.28125 11.953125 -15.84375 C 12.398438 -15.40625 12.753906 -14.890625 13.015625 -14.296875 C 13.273438 -13.703125 13.40625 -13.0625 13.40625 -12.375 C 13.40625 -11.8125 13.316406 -11.273438 13.140625 -10.765625 C 12.960938 -10.265625 12.710938 -9.8125 12.390625 -9.40625 C 12.078125 -9 11.703125 -8.644531 11.265625 -8.34375 C 10.828125 -8.039062 10.347656 -7.816406 9.828125 -7.671875 Z M 8.4375 -9.84375 C 8.78125 -9.84375 9.101562 -9.910156 9.40625 -10.046875 C 9.71875 -10.191406 9.984375 -10.375 10.203125 -10.59375 C 10.421875 -10.820312 10.59375 -11.09375 10.71875 -11.40625 C 10.851562 -11.726562 10.921875 -12.070312 10.921875 -12.4375 C 10.921875 -12.789062 10.851562 -13.117188 10.71875 -13.421875 C 10.59375 -13.734375 10.421875 -14.003906 10.203125 -14.234375 C 9.984375 -14.472656 9.71875 -14.660156 9.40625 -14.796875 C 9.101562 -14.941406 8.78125 -15.015625 8.4375 -15.015625 L 3.96875 -15.015625 L 3.96875 -9.828125 Z M 8.4375 -9.84375 "/></g></g></g><g fill="#02273b" fill-opacity="1"><g transform="translate(255.46468, 80.555456)"><g><path d="M 4.796875 -14.984375 L 0.125 -14.984375 L 0.125 -17.28125 L 12.046875 -17.28125 L 12.046875 -14.984375 L 7.34375 -14.984375 L 7.34375 0 L 4.796875 0 Z M 4.796875 -14.984375 "/></g></g></g><path stroke-linecap="round" transform="matrix(0.747984, 0, 0, 0.747984, 78.005789, 88.788552)" fill="none" stroke-linejoin="miter" d="M 1.000178 0.998156 L 161.368783 0.998156 " stroke="#f0535a" stroke-width="2" stroke-opacity="1" stroke-miterlimit="4"/></svg>